<!--?xml version="1.0" standalone="no"?-->
              <svg id="sw-js-blob-svg" viewBox="0 0 100 100" xmlns="http://www.w3.org/2000/svg" version="1.1">
                    <defs> 
                        <linearGradient id="sw-gradient" x1="0" x2="1" y1="1" y2="0">
                            <stop id="stop1" stop-color="rgba(222.058, 0, 0, 1)" offset="0%"></stop>
                            <stop id="stop2" stop-color="rgba(255, 178.383, 51.918, 1)" offset="100%"></stop>
                        </linearGradient>
                    </defs>
                <path fill="url(#sw-gradient)" d="M15.2,-24.1C21,-22.9,28,-21.5,29.9,-17.5C31.7,-13.5,28.4,-6.7,28.5,0.1C28.7,6.9,32.2,13.8,31,19C29.8,24.2,23.9,27.7,18,31.5C12,35.4,6,39.6,0.1,39.5C-5.9,39.4,-11.8,35,-15.4,29.8C-19.1,24.6,-20.5,18.7,-24.1,13.6C-27.7,8.5,-33.4,4.2,-34.3,-0.5C-35.2,-5.3,-31.3,-10.6,-28.5,-17.1C-25.8,-23.6,-24.2,-31.3,-19.6,-33.2C-15,-35.2,-7.5,-31.4,-1.4,-28.9C4.7,-26.5,9.3,-25.3,15.2,-24.1Z" width="100%" height="100%" transform="translate(50 50)" stroke-width="0" style="transition: all 0.3s ease 0s;" stroke="url(#sw-gradient)"></path>
              </svg>