<!--?xml version="1.0" standalone="no"?-->
              <svg id="sw-js-blob-svg" viewBox="0 0 100 100" xmlns="http://www.w3.org/2000/svg" version="1.1">
                    <defs> 
                        <linearGradient id="sw-gradient" x1="0" x2="1" y1="1" y2="0">
                            <stop id="stop1" stop-color="rgba(248, 117, 55, 1)" offset="0%"></stop>
                            <stop id="stop2" stop-color="rgba(251, 168, 31, 1)" offset="100%"></stop>
                        </linearGradient>
                    </defs>
                <path fill="url(#sw-gradient)" d="M20.2,-33.1C26.4,-31.5,31.8,-26.5,33.9,-20.4C35.9,-14.3,34.7,-7.1,35,0.2C35.4,7.5,37.2,15,34.7,20.3C32.1,25.6,25.3,28.8,18.8,33C12.3,37.3,6.1,42.7,-0.4,43.4C-7,44.2,-14,40.3,-18.2,34.7C-22.4,29.1,-23.8,21.8,-28,15.8C-32.3,9.7,-39.3,4.8,-41.8,-1.4C-44.2,-7.6,-41.9,-15.3,-37.9,-21.7C-33.9,-28.1,-28.1,-33.4,-21.5,-34.8C-14.9,-36.2,-7.4,-33.7,-0.2,-33.4C7,-33,14,-34.8,20.2,-33.1Z" width="100%" height="100%" transform="translate(50 50)" stroke-width="0" style="transition: all 0.3s ease 0s;"></path>
              </svg>