<!--?xml version="1.0" standalone="no"?-->
              <svg id="sw-js-blob-svg" viewBox="0 0 100 100" xmlns="http://www.w3.org/2000/svg" version="1.1">
                    <defs> 
                        <linearGradient id="sw-gradient" x1="0" x2="1" y1="1" y2="0">
                            <stop id="stop1" stop-color="rgba(222.058, 0, 0, 1)" offset="0%"></stop>
                            <stop id="stop2" stop-color="rgba(255, 178.383, 51.918, 1)" offset="100%"></stop>
                        </linearGradient>
                    </defs>
                <path fill="url(#sw-gradient)" d="M21.6,-30.4C24.9,-27.4,22.3,-16.9,22,-9.2C21.7,-1.5,23.7,3.4,22.6,7.5C21.5,11.6,17.3,14.8,13,19.8C8.8,24.7,4.4,31.4,0.1,31.2C-4.1,31,-8.2,24,-15.3,19.9C-22.4,15.9,-32.6,14.9,-31.8,11.7C-31,8.5,-19.2,3,-15.2,-3.7C-11.3,-10.4,-15.2,-18.3,-14,-22.1C-12.7,-25.8,-6.4,-25.4,1.4,-27.3C9.2,-29.2,18.3,-33.5,21.6,-30.4Z" width="100%" height="100%" transform="translate(50 50)" stroke-width="0" style="transition: all 0.3s ease 0s;" stroke="url(#sw-gradient)"></path>
              </svg>